<?xml version="1.0" encoding="utf-8"?>
<!-- Generator: Adobe Illustrator 26.2.1, SVG Export Plug-In . SVG Version: 6.00 Build 0)  -->
<svg version="1.1" xmlns="http://www.w3.org/2000/svg" xmlns:xlink="http://www.w3.org/1999/xlink" x="0px" y="0px"
	 viewBox="0 0 380 2554" style="enable-background:new 0 0 380 2554;" xml:space="preserve">
<style type="text/css">
	.st0{fill:#FFFFFF;}
	.st1{fill:none;}
	.st2{font-family:'MyriadPro-Regular';}
	.st3{font-size:16px;}
	.st4{font-family:'Didot';}
	.st5{font-size:38.8726px;}
	.st6{opacity:0.44;}
	.st7{font-family:'Vogue-Regular';}
	.st8{font-size:68.5292px;}
	.st9{fill:#FFFF3C;}
	.st10{font-size:119.7157px;}
	.st11{font-size:29.5005px;}
	.st12{opacity:0.29;fill:#7F7F7F;}
	.st13{font-size:106.661px;}
	.st14{opacity:0.27;}
	.st15{font-family:'Questrial-Regular';}
	.st16{font-size:18.8976px;}
	.st17{font-size:20.9065px;}
	.st18{font-size:20.4724px;}
	.st19{font-size:32px;}
</style>
<g id="Calque_4">
</g>
<g id="Background">
</g>
<g id="Calque_1">
	<path class="st0" d="M-128,114"/>
</g>
<g id="text">
	<rect x="29" y="886.6" class="st1" width="320" height="264.5"/>
	<text transform="matrix(1 0 0 1 29 897.9854)"><tspan x="0" y="0" class="st2 st3">1950s. In 1955, the All Caps Didot font, named </tspan><tspan x="0" y="19.2" class="st2 st3">after brothers Firmin and Pierre Didot (highly </tspan><tspan x="0" y="38.4" class="st2 st3">renowned printers, publishers, inventors, type</tspan><tspan x="306.1" y="38.4" class="st2 st3">-</tspan><tspan x="0" y="57.6" class="st2 st3">face designers, and intellectuals between the </tspan><tspan x="0" y="76.8" class="st2 st3">18th and 19th century), became a permanent </tspan><tspan x="0" y="96" class="st2 st3">logo on Vogue magazine&apos;s cover.</tspan><tspan x="0" y="115.2" class="st2 st3">Vogue Magazine&apos;s logo has advanced in recent </tspan><tspan x="0" y="134.4" class="st2 st3">years, but its look is still based on Didone font </tspan><tspan x="0" y="153.6" class="st2 st3">styles. Didone fonts were developed by Firmin </tspan><tspan x="0" y="172.8" class="st2 st3">Didot, Giambattista Bodoni and Justus Erich </tspan><tspan x="0" y="192" class="st2 st3">Walbaum, whose iconic typefaces, Bodoni, </tspan><tspan x="0" y="211.2" class="st2 st3">Didot, and Walbaum, remain in use today.</tspan></text>
	<text transform="matrix(0.766 0 0 1 27.1123 862.4893)" class="st4 st5">Fonderie</text>
	<rect x="27" y="1350.6" class="st1" width="320" height="112.4"/>
	<text transform="matrix(1 0 0 1 27 1361.9854)"><tspan x="0" y="0" class="st2 st3">Vogue is a Stephenson Blake sans caps typeface </tspan><tspan x="0" y="19.2" class="st2 st3">made in 1929. There is a slightly different typ</tspan><tspan x="305.7" y="19.2" class="st2 st3">-</tspan><tspan x="0" y="38.4" class="st2 st3">face called Intertype Vogue, created in 1930, </tspan><tspan x="0" y="57.6" class="st2 st3">about which Mac McGrew writes: Vogue is an </tspan><tspan x="0" y="76.8" class="st2 st3">American sans-serif type, cut by Intertype in </tspan><tspan x="0" y="96" class="st2 st3">light and bold weights early in 1930.</tspan></text>
	<line class="st1" x1="674" y1="1188" x2="674" y2="1189"/>
	<text transform="matrix(0.766 0 0 1 28.3431 1311.1807)" class="st4 st5">Font</text>
	<text transform="matrix(1 0 0 1 -15.7773 352.4043)" class="st6 st7 st8">typographie</text>
	<rect x="310.8" y="135.7" class="st1" width="2.2" height="0"/>
	<g id="URpDA4.tif">
		
			<image style="overflow:visible;" width="1558" height="1602" id="Layer_0" xlink:href="24AB0E1999878E6B.png"  transform="matrix(-2.698800e-11 0.2004 -0.2004 -2.698800e-11 348 389)">
		</image>
	</g>
	<text transform="matrix(1 0 0 1 39.397 791.0264)" class="st6 st7 st8">fonderie</text>
	<text transform="matrix(1 0 0 1 359.746 791.2702)" class="st6 st7 st8">fonderie</text>
	<g id="D8jMEU.tif_00000067939734318725940460000017110590718919086005_">
		
			<image style="overflow:visible;" width="1226" height="1400" id="Layer_0_00000103235737366413639570000017936210268469808302_" xlink:href="24AB0E1999878E69.png"  transform="matrix(0.2635 0 0 0.2635 29 1593)">
		</image>
	</g>
	<rect y="272" class="st9" width="380" height="5"/>
	<text transform="matrix(1 0 0 1 17.3606 147.5429)" class="st7 st10">vogue</text>
	<text transform="matrix(1 0 0 1 -69.0136 1226.9166)" class="st6 st7 st8">font font font</text>
	<text transform="matrix(1 0 0 1 -13.8164 1561.2328)" class="st6 st7 st8">map map map</text>
	<rect x="-2" y="2389" class="st9" width="381" height="164"/>
	<text transform="matrix(0.766 0 0 1 123.167 2434.5166)" class="st4 st11">Nous joindre</text>
	<g id="EXq80u.tif">
		
			<image style="overflow:visible;" width="980" height="980" id="Layer_0_00000142898838624878654350000015641039229012053145_" xlink:href="24AB0E1999878E6F.png"  transform="matrix(4.183673e-02 0 0 4.183673e-02 69 2460)">
		</image>
	</g>
	<g id="CYVbEC.tif">
		
			<image style="overflow:visible;" width="452" height="340" id="Layer_0_00000104696306259508596970000002419022634585798035_" xlink:href="24AB0E1999878E68.png"  transform="matrix(9.117647e-02 0 0 9.117647e-02 160 2465)">
		</image>
	</g>
	<rect x="-2" y="2113" class="st12" width="384" height="216"/>
	<text transform="matrix(0.766 0 0 1 102.0781 2255.3633)" class="st4 st13">teste</text>
	<path class="st14" d="M121.5,228h-41c-6.6,0-12-5.4-12-12v-9c0-6.6,5.4-12,12-12h41c6.6,0,12,5.4,12,12v9
		C133.5,222.6,128.1,228,121.5,228z"/>
	<text transform="matrix(0.9812 0 0 1 77.2148 217.7041)" class="st9 st15 st16">FONT</text>
	<path class="st14" d="M233.5,228h-62c-6.6,0-12-5.4-12-12v-9c0-6.6,5.4-12,12-12h62c6.6,0,12,5.4,12,12v9
		C245.5,222.6,240.1,228,233.5,228z"/>
	<text transform="matrix(0.7809 0 0 1 163.1543 218.8218)" class="st9 st15 st17">FONDERIE</text>
	<path class="st14" d="M301.5,228H281c-6.6,0-12-5.4-12-12v-9c0-6.6,5.4-12,12-12h20.5c6.6,0,12,5.4,12,12v9
		C313.5,222.6,308.1,228,301.5,228z"/>
	<text transform="matrix(0.7974 0 0 1 271.1543 223.0122)" class="st9 st15 st18">MAP</text>
	<text transform="matrix(1 0 0 1 -280.1622 787.5611)" class="st6 st7 st8">fonderie</text>
	<text transform="matrix(1 0 0 1 94.2603 2026.8604)" class="st7 st19">Lorem ipsum</text>
</g>
</svg>
